<?xml version="1.0" standalone="no"?>
<!DOCTYPE svg PUBLIC "-//W3C//DTD SVG 20010904//EN"
 "http://www.w3.org/TR/2001/REC-SVG-20010904/DTD/svg10.dtd">
<svg version="1.0" xmlns="http://www.w3.org/2000/svg"
 width="16.000000pt" height="16.000000pt" viewBox="0 0 16.000000 16.000000"
 preserveAspectRatio="xMidYMid meet">
<metadata>
Created by potrace 1.11, written by Peter Selinger 2001-2013
</metadata>
<g transform="translate(0.000000,16.000000) scale(0.002667,-0.002667)"
fill="#000000" stroke="none">
<path d="M2040 5404 c-152 -29 -298 -96 -385 -176 l-58 -53 7 54 c4 30 13 69
21 88 23 54 -3 42 -98 -48 -134 -124 -245 -308 -284 -467 l-17 -66 -13 49 c-7
28 -13 74 -13 103 0 72 -15 65 -63 -29 -51 -101 -70 -196 -70 -349 0 -202 54
-376 155 -497 49 -59 63 -65 54 -25 -27 124 -13 279 38 414 l22 61 18 -49 c59
-156 165 -292 303 -384 41 -27 78 -50 81 -50 4 0 7 69 7 152 1 106 6 173 17
217 13 52 14 76 5 133 -29 189 76 386 241 448 75 29 194 24 264 -9 207 -99
271 -417 138 -681 -21 -41 -29 -69 -24 -83 7 -25 392 -407 409 -407 14 0 104
136 154 234 144 283 179 568 99 816 -92 285 -299 491 -583 576 -78 23 -111 27
-245 30 -85 1 -166 0 -180 -2z"/>
<path d="M1876 4483 c-46 -92 -61 -175 -61 -338 0 -186 6 -206 81 -260 31 -22
70 -56 87 -75 32 -37 107 -148 107 -160 0 -4 -35 27 -78 69 -58 57 -111 95
-207 151 -256 147 -361 229 -420 329 -16 28 -34 49 -40 47 -16 -4 -27 -86 -20
-154 5 -55 17 -96 49 -173 6 -15 1 -15 -61 -4 -91 17 -293 30 -293 18 0 -5 14
-17 31 -27 49 -29 144 -127 168 -173 45 -89 23 -123 -136 -209 -216 -116 -383
-223 -383 -245 0 -11 -4 -11 100 1 270 31 376 -84 310 -335 -10 -38 -16 -71
-15 -73 2 -2 30 18 62 44 134 109 309 208 452 254 46 15 79 30 73 34 -19 11
-137 36 -176 36 l-40 0 32 33 c102 105 316 178 515 176 l102 -2 -65 -8 c-113
-14 -333 -94 -354 -128 -7 -11 -8 -10 121 -41 l93 -22 -61 -39 c-75 -49 -145
-118 -192 -190 -41 -63 -56 -104 -36 -96 8 3 45 16 82 28 168 53 353 -15 398
-147 31 -93 2 -216 -69 -293 -18 -18 -32 -35 -32 -38 0 -8 141 3 164 12 19 8
19 8 0 -24 -23 -39 -79 -101 -113 -124 -39 -26 -19 -30 63 -14 139 29 285 118
334 205 l22 41 -52 -6 c-43 -4 -58 -2 -77 14 -21 17 -24 28 -23 74 1 30 8 78
15 107 8 28 12 52 10 52 -3 0 -16 -9 -30 -20 -14 -11 -36 -20 -49 -20 -53 0
-56 86 -8 206 20 52 23 68 14 74 -21 13 -168 32 -193 25 -16 -4 -18 -3 -7 3
36 23 184 44 335 49 141 4 164 2 195 -14 34 -17 35 -20 34 -70 -1 -33 -9 -66
-23 -88 -11 -20 -21 -39 -21 -43 0 -4 40 -8 89 -9 207 -3 301 -75 289 -219 -6
-69 4 -69 76 -3 110 100 177 241 190 399 7 83 -5 122 -26 85 -18 -32 -93 -101
-117 -108 -17 -4 -21 -1 -21 16 0 34 -35 83 -70 98 -29 13 -31 17 -26 49 15
97 -44 262 -138 386 -25 32 -125 134 -223 225 -279 260 -377 399 -406 574
l-13 80 -17 -32 c-28 -52 -47 -142 -47 -218 0 -121 6 -130 153 -267 204 -190
274 -264 338 -362 32 -49 59 -94 59 -100 0 -6 -15 12 -34 40 -19 28 -101 114
-182 190 -371 349 -410 391 -477 515 -44 81 -67 157 -67 226 0 29 -4 53 -10
53 -5 0 -20 -21 -34 -47z m678 -1092 c41 -38 96 -117 96 -137 0 -27 -105 15
-138 55 -15 19 -57 105 -67 140 l-7 24 38 -23 c22 -13 56 -39 78 -59z"/>
<path d="M4455 3750 c-104 -21 -200 -75 -350 -195 -137 -110 -159 -125 -189
-125 -44 0 -32 48 36 148 16 23 24 42 18 42 -21 0 -155 -108 -231 -187 -99
-102 -184 -218 -243 -331 -47 -92 -80 -172 -72 -179 2 -2 42 35 90 81 227 222
567 384 845 400 l86 6 -77 -14 c-383 -69 -809 -373 -1132 -808 l-28 -37 59
-30 c32 -16 110 -72 173 -125 63 -52 115 -94 116 -93 1 1 39 75 84 165 135
268 335 550 458 647 165 130 415 160 592 72 l65 -32 55 33 c143 86 488 153
635 124 27 -6 52 -8 54 -6 17 16 -171 162 -284 221 -163 85 -279 116 -430 116
-119 0 -156 -6 -312 -55 -56 -17 -108 -28 -117 -25 -46 18 2 91 96 149 27 16
48 34 48 39 0 5 -1 9 -2 8 -2 -1 -21 -5 -43 -9z"/>
<path d="M947 3098 c-196 -216 -377 -491 -433 -660 -19 -57 -13 -70 19 -41 28
27 169 124 173 120 2 -2 -12 -48 -32 -102 -133 -373 -83 -868 124 -1219 45
-76 164 -216 175 -206 3 3 1 25 -3 50 -5 25 -9 69 -10 99 l0 53 43 -58 c164
-222 469 -394 779 -440 238 -35 531 13 753 123 237 118 464 336 629 602 56 91
126 224 126 240 0 10 -124 118 -307 269 -112 91 -113 92 -127 70 -7 -13 -29
-48 -48 -78 -143 -227 -389 -427 -588 -476 -122 -31 -282 -3 -391 67 -118 76
-220 230 -255 386 -25 112 -15 307 20 427 49 164 160 351 294 497 29 31 52 59
52 62 0 3 -25 11 -56 17 -103 22 -242 -23 -335 -107 -22 -20 -41 -34 -43 -32
-2 2 3 40 10 84 10 54 28 108 57 168 24 48 38 87 33 87 -20 0 -131 -56 -223
-114 -123 -76 -244 -166 -318 -237 l-61 -58 7 82 c4 45 17 128 28 184 12 56
21 117 21 137 0 37 -18 86 -31 86 -4 0 -41 -37 -82 -82z"/>
<path d="M2376 2989 c-12 -60 -6 -114 18 -165 19 -41 44 -67 122 -131 55 -44
108 -95 120 -116 13 -24 25 -73 33 -135 20 -164 60 -226 246 -375 202 -164
396 -330 434 -374 22 -25 51 -70 63 -102 22 -53 23 -67 20 -261 -2 -130 2
-223 9 -255 19 -84 76 -180 142 -241 58 -54 180 -124 193 -112 3 4 -5 22 -19
40 -82 109 -79 318 8 423 l24 30 1 -29 c1 -129 119 -348 238 -442 138 -109
273 -150 466 -141 140 5 240 33 369 100 122 63 241 183 162 163 -98 -25 -232
-7 -345 45 -91 42 -109 61 -49 53 62 -8 197 11 280 40 100 35 172 80 254 161
286 280 204 728 -168 910 -51 25 -118 51 -150 60 -68 17 -237 29 -237 17 0 -5
25 -19 55 -31 69 -29 139 -96 170 -164 32 -67 34 -171 6 -234 -56 -121 -220
-203 -409 -203 l-84 0 31 35 c136 156 125 425 -25 585 -27 29 -56 56 -66 61
-16 9 -17 5 -12 -48 4 -33 1 -77 -6 -102 -14 -54 -88 -136 -137 -152 -46 -15
-149 -7 -195 15 -20 9 -175 132 -345 272 -169 140 -328 265 -353 278 -53 28
-140 46 -217 46 -98 0 -116 19 -148 158 -28 121 -63 147 -217 163 -148 15
-224 61 -248 149 -13 48 -25 51 -34 9z"/>
</g>
</svg>
