<svg version="1" xmlns="http://www.w3.org/2000/svg" width="1333.333" height="1333.333" viewBox="0 0 1000.000000 1000.000000"><path d="M312.5 25.6c-33.6 5.1-61.2 17.6-81.4 36.9l-8.4 8 .6-8.7c.4-5.6 1.6-11.8 3.5-17.5 1.7-4.8 2.9-8.9 2.9-9-.4-.4-10.7 7.1-17.3 12.6-27.2 22.7-54.9 69.6-60.7 102.7-1.4 7.7-1.5 7.8-2.7 4.9-2.8-7-5.1-18.7-5.7-28.8l-.6-10.8-2.4 2.8c-3.8 4.6-13 24.1-15.7 33.3-4.8 17.1-6 27-6 49.5.1 16.9.5 23.3 2.2 32.6 3.9 21.5 11.4 41 21.6 56.3 5.6 8.4 16.5 21.1 17.3 20.2.3-.3-.3-3.8-1.3-7.8-2.7-10.3-2.7-41.5-.1-53.8 1.9-9 7.1-25.2 10.7-33.5l2.1-5 3.8 10c11.1 29.2 27 51.3 49.5 68.7 9.2 7.1 27.3 18.4 28.1 17.6.3-.2 0-3.1-.7-6.4-.6-3.2-1.2-14.2-1.2-24.4 0-19.2 1.5-33.4 5.3-48.1 1.2-4.9 1.6-8.2 1-10.2-2.1-7.5-3.1-22.9-2-32.3 6.2-52.9 52.3-84 98.1-66.3 24.3 9.4 40.5 34.3 44.1 67.9 2.6 24.3-5 55.9-18.5 77.6l-2.5 4 7.2 9c8.3 10.4 28.3 30.6 44.7 45.4 6.3 5.7 15.8 14.5 21.1 19.7l9.7 9.4 3.4-4.3c23.7-29.6 45.3-77.7 52.3-116.8.9-5.2 1.9-15.6 2.2-23.1 1.6-39.3-9.2-77.9-30.8-110.5-9.2-13.9-29.2-34.2-42.7-43.3-23.4-15.8-51.1-25.9-80.4-29-13.2-1.5-39.3-1.2-50.3.5z"/><path d="M281.7 201.2c-11.6 15.5-19.5 56.9-16.8 87.8 1.3 13.9 4.4 28 6.6 29.3.7.4 5 3.4 9.4 6.7 15.7 11.6 28.2 26 35.1 40.5 4.1 8.6 6.1 14.6 3.8 11.1-13.3-19.4-25.5-29-65.8-52.2-32.6-18.7-44.2-26.6-56.8-38.8-8.9-8.5-13.9-15-19.6-25-2.4-4.3-4.6-7.4-4.9-6.9-.7 1.3-2.6 11.2-3.3 17.8-.8 7.5 1.1 23.8 3.8 32.4 1.1 3.6 3.5 9.6 5.4 13.2l3.3 6.6-7.7-1.8c-12.2-2.9-32.3-4.9-50-4.9h-16.4l7.9 5.2c10.5 7 28.9 25.5 33 33.3 6.6 12.6 6.3 18.4-1.2 25.4-6.2 5.7-12.5 9.6-38.6 23.7-26.4 14.3-40.8 22.9-51 30.7-8.9 6.7-15.4 13.2-12.4 12.4 6.9-1.9 24.8-3.9 35.5-3.9 30.8-.1 46.7 10.7 49.9 33.8 1.6 10.9-1.1 29.3-6.4 44.3-.8 2.4-1.5 4.8-1.5 5.3 0 .6 2.7-1.5 6-4.6 16.7-15.4 47.1-35.2 71.8-46.8 11.6-5.4 30.4-12.2 37-13.3 2.4-.4 4-1.1 3.5-1.6-1.1-1.1-28.8-6.6-37.6-7.5l-6.8-.7 4.3-4.4c23.9-24.5 73.8-40.4 116.1-36.8 8.8.7 11.2 2.5 3.3 2.5-6.7 0-25.4 3.7-37.8 7.4-14.9 4.6-27.2 9.8-35.5 15.1-6.1 4-6.5 4.4-4.3 4.9 1.4.3 6.8 1.5 12 2.6 5.2 1.2 14.1 3.4 19.8 5 5.6 1.7 10.6 3 11 3 .4 0-2.6 1.8-6.5 4-21 11.4-41.2 32.7-50.9 53.4-1.8 3.9-3.1 7.2-2.9 7.4.2.2 2.9-1 6.2-2.6 12.1-6.2 19.3-7.7 35.3-7.6 13 0 15.4.3 22.6 2.7 20.4 6.8 32.8 20.8 35.5 40.2 2.4 16.9-4.4 35.9-17.3 48.9l-6.9 6.9 12.3-.6c6.8-.3 14.8-1.3 17.8-2.1 3-.9 5.9-1.6 6.3-1.6.5 0-.7 2.8-2.5 6.2-3.8 7.3-18.2 22.5-24.3 25.6l-4 2.1 5.2.1c22.8.2 59.5-17 73.3-34.3 4.9-6.1 9.5-13.6 8.7-14.3-.2-.3-3.5 0-7.1.7-11 1.9-19.5-1.2-21.7-7.9-1.6-4.9-.6-17.3 2.6-30 1.4-5.7 2.5-10.6 2.5-10.9 0-.3-1.7 1-3.8 2.9-7.5 6.8-14.2 7.3-18.6 1.5-1.8-2.4-2.1-4.2-2-11 .2-9.1 3.1-19.7 9-32.5l3.3-7.3-2.7-1c-5.1-2-17.7-3.9-30.7-4.6l-13-.7 6-1.8c34.1-10.6 93.4-13.1 107.2-4.6 7 4.2 6.5 14.3-1.6 30.4l-4.7 9.4h12c24.4 0 43.9 5.4 53.2 14.7 2 2 4.8 6.1 6.3 9.2 2.2 4.9 2.6 6.9 2.6 15.6 0 5.5-.4 11.5-.9 13.4l-.8 3.3 4.2-2.3c21.7-12.2 42.1-44.5 47.5-75.3 1.5-9.1 2.1-31.2.7-33.3-.4-.7-1.4.3-2.6 2.9-4.2 8.5-18.2 20.9-26.3 23.3-2.1.6-2.3.3-2.3-3.6 0-8.3-6.4-16.9-15.4-21l-4-1.8.2-11.8c.5-17.6-2.4-28.9-11.7-47-6.3-12-15.4-24.9-26.2-36.8-8.4-9.2-14.4-14.9-44.8-42.9-46.5-42.7-66.5-74.2-68.9-108.1l-.8-10-2.2 3.5c-10.4 16.3-14.2 57.4-6.7 72 2.5 4.8 10 12.3 36.6 36.6 37.8 34.5 53 52.1 64.4 74.8 5.8 11.5 7.3 16.2 2.8 8.6-9.3-15.8-25.6-33.1-59.8-63.8-26.8-24.1-50.1-46.9-59.1-58.2-13.7-17-24.1-35.8-28.3-51-2.4-8.6-4.5-26.2-3.7-29.6.8-3.2.2-3-2.7.8zm123.8 215.3c7.4 5.3 13.2 11.5 18.9 20.2 3.6 5.7 7.6 13.4 7.6 14.9 0 1-6.5.2-12.2-1.6-8.3-2.5-14.5-7.3-19.6-15-4-5.9-9.7-19.1-10.9-25.2l-.6-3 5.4 2.7c3 1.5 8.1 4.7 11.4 7zM790 352.2c-21.9 3.1-43.1 14.9-76 42.1-9.6 8-19.8 16-22.7 17.7-5.9 3.6-12.5 4.9-14.8 3-3.6-3-.1-13.1 9.5-27.4 3.8-5.5 6.6-10.3 6.4-10.5-.6-.7-13.6 8.2-23.9 16.3-28.1 22.3-55.5 56.4-72.6 90.1-6.7 13.3-13.9 31.8-12.8 32.9.2.2 3.3-3 6.9-7.1 7.9-9.1 24-23.6 37.3-33.6 35.4-26.5 81.1-46.9 120.7-53.8 12.3-2.1 40.6-3.7 38-2.1-.8.5-4.4 1.3-8 1.6-17 1.9-41.9 8.8-62 17.3-56.7 24.1-116.9 74-164.6 136.6-8.8 11.5-10.2 13.8-8.7 14.3 1 .4 5.4 2.4 9.8 4.4 7.8 3.7 11.4 6.5 44.4 33.4 6.7 5.4 12.3 9.7 12.5 9.5.2-.2 2.7-5.6 5.6-11.9 20-44.5 51.7-94.9 82.6-131.1 36.7-43 101.3-54.6 145.6-26.2 2.7 1.7 2.8 1.6 7.3-1.6 10.2-7.3 32.2-16.2 53.5-21.6 31.1-7.9 63.1-9.7 87.5-4.8 2.9.5 2.8.4-2.5-5.2-24.8-25.7-68.2-49.8-103.5-57.4-25.5-5.5-50.3-5.1-75.5 1.4-3.6.9-12.6 3.6-20 6s-14.9 4.6-16.6 5c-6.5 1.3-11.2-3.3-9.8-9.3 1.1-4.3 14-16.1 23.9-21.9 12.4-7.2 12.3-7.2 10.5-7.1-.8 0-4.4.5-8 1z"/><path d="M100.4 476.2C70.7 506.8 43.8 543.6 23.7 581 15.5 596.4 6 619.3 6 623.8c0 .8 2.3-.7 5.3-3.4 8.4-7.6 37.1-27.4 38.1-26.3.2.2-1.6 5.1-3.9 10.9-22.9 55.7-25.4 123.9-6.9 188.2 9.1 31.8 24.2 62.9 40.9 84.3 5.9 7.6 19.3 21.1 20.1 20.2.2-.2-.3-3.5-1.1-7.3-1.7-7.9-3.1-29.4-2.1-31.9.4-1.2 2.2.7 6.8 7.6 7.1 10.6 23.5 28.1 35.3 37.6 26.4 21.3 61.6 39.2 92.8 47.2 23.1 6 28.8 6.6 59.7 6.6 30.5 0 37.9-.7 61.8-6.1C426 935 488 885.9 535.4 806.5c5-8.3 12-20.8 15.6-27.9l6.5-12.7-5-4.7C540.8 750.4 475.4 696 474 696c-.4 0-2 2.4-3.5 5.2-9.1 16.8-28.5 41.8-45.2 58.5-27.6 27.6-56 44.4-84.8 50.4-8.4 1.8-27.4 1.5-37-.6-44.2-9.3-75.9-43.6-86.6-93.7-2.6-12.2-3.6-36.3-2-49.4 2.9-23.1 9.6-45.1 20.7-67.4 11.5-23.1 24.9-42 44.9-63.7 5.2-5.6 9.5-10.4 9.5-10.7 0-.3-2.6-1.3-5.7-2.3-9-2.7-26.7-2.4-36.3.6-13.2 4.1-25 10.8-36.9 21.1l-7.2 6.2.6-5.4c2.9-24.4 9-43.1 19.3-58.6 1.9-2.9 3.3-5.5 3.1-5.7-.2-.2-5.2 1.8-11 4.4-31.1 13.9-77.2 45.2-100.6 68.4l-9.3 9.2V555c0-9.9 2.1-24.6 6.4-46.8 4.4-22 4.7-32.4 1.4-38.3-1.2-2.2-2.4-3.9-2.8-3.9-.3 0-5.1 4.6-10.6 10.2z"/><path d="M380.3 498.7c-2.8 6.6-3.8 17.5-2.5 25.4 2.5 14.7 8.2 22.4 28.1 37.9 18.9 14.7 25.2 22 27.9 32.5.6 2.2 1.6 9.5 2.2 16.2 1.3 14.3 2.9 21.3 7.1 30.2 6.7 14.5 15.4 24 40.9 44.5 40.2 32.3 78.1 64.6 85.3 72.6 6.4 7.1 11.1 15.1 14.1 24.2 4.1 12.2 4.9 20.9 4 41.8-1.4 28.9-1 49.3.9 57.4 7 28.3 25.9 51.7 52.2 64.5 5.5 2.7 11.3 5.2 12.8 5.5l2.8.7-4.1-5.3c-8.6-10.8-13.6-24.6-14.7-40.3-1.1-16.1 4-33.7 13.4-46.3 4.9-6.6 6.3-6.7 6.3-.5 0 9.1 5.5 27.2 12.5 41.8 15.4 31.9 41.8 55.8 73.6 66.5 22.6 7.7 52.6 8.8 79.4 3 33.6-7.3 68.5-26.4 81.4-44.5 2.7-3.8 3.1-4.7 1.5-4.1-11.8 4.6-35.6 4.7-52.4.2-14.7-3.8-30.8-11.1-38.8-17.4-2.3-1.8-2-1.8 15-1.8 19.9 0 30.6-1.6 46.5-6.9 44.4-14.8 76.6-50 83.8-91.4 9.8-55.9-26.2-110.1-85.5-128.9-14.2-4.5-26.2-6.2-42.9-6.1h-14.6l6.6 2.3c27.4 9.5 45.9 33.3 45.9 58.9-.1 32.5-27.7 57-70.7 62.8-8.5 1.1-29.1.7-31.3-.6-.6-.3 1.2-2.7 3.9-5.4 14.2-13.8 21.1-34.7 19.8-59.5-1-18.5-6.8-35.6-17.2-50.1-4.9-6.9-15-16.7-19.7-19.1-3.1-1.6-3.1-1.6-2.4.8 7.7 25.9-4.9 51.8-29.3 59.9-5.3 1.8-8 2.1-16 1.7-10.7-.6-17.8-2.9-27.2-9.1-3-1.9-27-21.4-53.4-43.2-66.5-55.1-71.9-59.3-80-63.1-8.5-4-19-6-38.6-7.2-23-1.5-25.4-3.7-30.4-28.3-3.9-19.1-7.3-24.8-17.8-29.8-6.4-3-14.2-4.5-28.6-5.6-17-1.3-29.1-5.9-37.7-14.3-6.8-6.7-9.7-13.5-9.6-22.4.1-2.1-.1-3.8-.4-3.8-.3 0-1.2 1.7-2.1 3.7z"/></svg>