<svg version="1" xmlns="http://www.w3.org/2000/svg" width="1373.333" height="1373.333" viewBox="0 0 1030.000000 1030.000000"><path d="M328.5 40.5c-33.7 4.9-63.3 18.3-82.7 37.4l-7.8 7.7v-5.8c0-7 2.4-18.6 5-24.6 1.1-2.4 2-4.6 2-4.9 0-.9-12 8-18.7 13.8-27.9 24.5-54.1 69.3-59.7 101.8-1.1 6.8-1.4 7.4-2.4 5.4-2.3-4.2-5.5-19.9-6.1-30.1l-.6-10.4-4.6 7c-2.6 3.9-6 10.3-7.7 14.4-20 47.9-14.7 112.8 12.6 153.6 4.7 7 16.1 20.6 16.8 20 .2-.2-.6-4.6-1.6-9.8-3.7-18-2.4-43.9 3.1-64 2.4-8.4 8.7-24.8 9.9-25.5.4-.3 2 3 3.5 7.3 13.2 37.2 36.8 64.9 72.8 85.6 2.7 1.5 5 2.6 5.2 2.4.2-.1-.2-3-.8-6.3-1.5-8.4-1.4-41.2.2-52 .7-5 2.2-13.1 3.3-18 1.8-7.8 2-9.9 1-16-2.9-18.1-2.2-32.7 2-46.4 10-32.3 37.5-54 68.6-54.1 50-.1 80.2 48.3 68.1 109.2-2.9 14.4-9.8 32.1-16 41-1.1 1.4-1.9 3.2-1.9 4 0 2.1 14.6 19.4 26.3 31.1 5.6 5.6 20.5 19.6 33 31.1 19.3 17.6 23.1 20.6 24.2 19.5 3.1-3.3 13.2-18.3 19.8-29.4 18.2-30.6 32.1-70.3 35.8-102 2.4-20.2-.5-49.2-7-71.2C506 101.7 461.8 59.1 401.5 44.4c-21.7-5.3-52.3-6.9-73-3.9z"/><path d="M295.8 217.7c-15 22.8-21.2 82.6-11.5 110.8 1.1 3.2 2.9 5.1 8.8 9.3 11.1 7.8 21 17.2 28 26.4 6.1 8.2 13.2 21.4 14.5 27.3.5 2.4-.1 1.9-3.4-3-11-16.4-23.8-26.2-64.2-49.5-45.2-26-63.7-41.6-75.9-64l-3.9-7.2-1.1 3.3c-5.2 15.9-2.7 41.3 5.9 59.6 2.8 5.9 3.5 8.3 2.4 7.9-3.6-1.4-21.6-4.6-31.3-5.6-14.7-1.4-41.2-1.3-38.7.3 25.3 16.1 45.7 41.7 43.1 53.9-1.7 7.3-12.1 15.1-40.5 30.3-23.7 12.6-36.1 19.9-47.5 27.6-10.8 7.3-23.4 18.3-20 17.5 12.9-3.1 34.1-4.8 45.6-3.6 21.5 2.2 33.8 10.8 38.6 27 3.6 12.2.9 36.4-6.3 55.5-.4 1.1 2.1-.6 5.7-4 26.1-24.3 73.9-51.3 104.2-59l9.2-2.3-4.5-1.2c-7.7-2.1-21.8-4.8-31.6-6.1l-9.5-1.3 5.3-5.4c19.4-19.7 57.6-34.3 94.3-35.9 14.2-.6 29.5.2 29.5 1.6 0 .5-3.6 1.1-8 1.4-22 1.7-62 14.8-73.5 24.1l-3 2.4 2.5.6c10.4 2.3 29.7 7 35.3 8.7l6.9 2-7.7 4.4c-4.3 2.5-10.3 6.3-13.4 8.6-8.8 6.6-22.2 20.8-28.4 30.1-5.1 7.6-10.7 18.5-10.7 20.7 0 .5 3-.6 6.8-2.5 9.7-4.8 17.1-6.5 30.7-7.1 14.9-.6 23.8 1.1 35 6.6 12.4 6.1 20.3 14.7 24.7 27 1.6 4.2 2.1 8.2 2.1 16.1.1 9-.3 11.7-2.7 18.5-4.2 12.2-11 22.2-19.1 28.2l-3 2.2 8.7.1c8.5 0 20.6-1.8 26.1-3.9 3.6-1.4 3.5-.3-.5 6.8-3.7 6.5-19.7 23-24.8 25.4l-3.5 1.7h5.5c10.5 0 30.2-5.6 43.5-12.3 10.1-5.1 19.7-12.1 27-19.8 5.9-6.3 12.1-15.6 11.1-16.6-.1-.2-2.9.2-6.2.8-10.5 2-19-.5-22-6.3-2.8-5.3-.8-23.9 4.2-41.3.5-1.6 0-1.4-2.7 1.1-5.3 4.8-8.1 6.4-11.4 6.4-6.2 0-10.5-5.8-10.5-14.3 0-6.7 4.4-22.6 8.9-32.2l4-8.6-2.4-.9c-4.9-1.9-20-4.2-31.8-4.9l-12.2-.7 5.5-1.7c17-5.4 41.1-8.7 67.5-9.4 30.8-.7 41.2 1.6 44.4 10.1 2 5.3.2 13.6-5.2 24.5-2.3 4.7-4.3 8.8-4.5 9.2-.1.3 7.1.9 16 1.2 30.8 1.2 45.8 7.2 53.7 21.7 3.2 5.9 3.6 7.4 3.9 16 .2 5.3-.1 11.3-.7 13.5-.6 2.1-.9 4-.8 4.2.9.8 13.9-9 19.6-14.8 15.7-15.8 27.4-39.3 31.6-63.5 1.5-8.5 2.1-30.5.9-31.7-.4-.3-2.3 2-4.4 5.1-4.5 6.9-13.6 15.5-20.1 18.8-2.7 1.3-5.3 2.4-5.9 2.4-.5 0-1-1.9-1-4.2 0-8.2-6-16.2-15.5-20.7l-4-1.9.4-10.8c.4-16.3-2.8-30.1-10.7-45.9C486 400 473.1 385 435 350c-41.1-37.7-57.7-57.4-69.5-82.3-5.9-12.5-8.5-22.2-9.2-34.4-.4-6.3-1-10-1.6-9.6-1.7 1-6.5 12.7-8.6 21.1-4.5 17.3-4.7 36.4-.7 49.7 1.9 6.3 9.1 13.8 39.8 41.8 36.1 32.9 50.8 50.1 62.3 73.1 7.2 14.2 8.5 18.2 2.9 9-10.3-17.1-23.7-31.5-61.9-65.9-33.1-29.9-50.8-47.7-61.7-62.3-17.5-23.2-24.7-40.5-27.2-65.1l-1.1-11.5-2.7 4.1zm111.8 205.9c7 2.9 17.2 10.4 23.6 17.3 5.9 6.4 13.7 18.7 15.3 24 .7 2.4.7 2.4-5.1 1.7-8.1-.9-17.3-5.6-22.5-11.4-4.5-5-11.7-19.3-14.2-28-.8-2.8-1.4-5.2-1.2-5.2.1 0 2 .7 4.1 1.6zM807 367c-24.4 3.3-44 14.2-81.5 45.3-16.3 13.6-24.4 18.7-29.5 18.7-2 0-4.1-.5-4.8-1.2-3.3-3.3.9-14.6 11.1-29.6 3.1-4.5 5.4-8.2 5.1-8.2-1.3 0-16.5 10.7-24.9 17.5-11.6 9.4-33 31.3-42.4 43.5-19.1 24.6-34.2 51.7-40.4 72.7l-1.6 5.3 13.2-13.3c15.7-15.8 25.1-23.5 45.1-36.8 33-22 72.4-38.2 107.6-44.3 11.6-2.1 38.6-3.4 37.7-1.9-.4.6-3.7 1.3-7.4 1.7-39.8 3.8-90.7 26.3-134.1 59.3-31.8 24.2-69.1 62-94.6 95.7-8.6 11.4-9.8 13.6-7.2 13.6.8 0 5.4 2 10.2 4.5 6.8 3.4 14.4 9 32.2 23.6 12.8 10.5 23.5 18.9 23.6 18.8.2-.2 2-4.2 4-8.9 20.8-47.8 63.8-114.5 91.6-142.1 18.3-18.1 42.3-29.5 69.7-33 23.1-2.9 50.2 2.5 65.9 13.1 2.5 1.6 4.7 3 4.9 3 .2 0 3.7-2.1 7.6-4.6 16-10.4 41.2-18.9 72.4-24.6 15.7-2.8 47.9-3.6 59.4-1.4 4.7.8 8.6 1.4 8.8 1.2.2-.2-2.8-3.3-6.7-7-43.6-41.1-102-63.9-150.5-58.7-14.5 1.6-25.3 4.1-44.1 10.1-20.6 6.7-23.4 7.1-26.9 3.6-2.2-2.2-2.6-3.3-2.1-5.9 1.4-7.2 11.2-16.3 27.4-25.6 3.9-2.3 7.2-4.4 7.2-4.6 0-.3-.1-.4-.2-.4-.2.1-2.8.5-5.8.9z"/><path d="M114.7 492c-31.3 32.6-60 72.6-78.2 109-3.5 6.9-7.1 14.3-8 16.5-2.2 5.1-7.6 20.8-7.2 21.1.1.1 3.8-2.7 8.2-6.3 12.4-10 33.9-24.2 35-23.2.2.3-1.8 5.9-4.5 12.5C39.9 671.8 35.9 730.4 48.7 788c9.6 43.5 28.2 84 50.5 110 7.5 8.7 16.4 16.4 15.4 13.4-2.5-7.9-4.9-39.4-3-39.4.5 0 2.4 2.4 4.1 5.2 8.7 14.4 27.7 34.1 46.8 48.2 33.4 25 76.1 41.9 117.4 46.6 13.9 1.7 51.1.8 66.1-1.5 14.6-2.2 38.7-8.3 51.6-13 23-8.4 52.5-25.1 71.4-40.2 37.4-29.9 69.3-70.6 96.6-123.1l6.9-13.3-5-4.6c-16.1-14.5-78.3-65.9-78.8-65.2-.2.2-2.7 4.4-5.7 9.4-28.7 48.7-76.3 90.4-116.3 101.9-29 8.4-60.1 3.6-85.4-13-15.5-10.3-32.2-30.5-40.3-49.1-28.1-63.9-6.6-146.2 55.2-210.9 4.9-5 8.8-9.4 8.8-9.6 0-.3-2.8-1.4-6.2-2.4-8.4-2.4-24.9-2.4-33.8 0-13.1 3.6-27.1 11.5-41 23.5l-5 4.3.6-5.8c2.3-23 9.4-44.3 19.6-59.2 1.6-2.3 2.4-4.2 1.9-4.2-1.9 0-18.7 7.8-28.2 13-31.4 17.5-63.2 40.4-82.6 59.5l-9.3 9v-8c0-10.4 2-24.8 6.4-47.3 4.8-24.4 4.7-35.6-.6-40-1.3-1-3.1.4-12.1 9.8z"/><path d="M395.3 514.7c-6.2 14.9-2.6 34.9 8.5 47.4 2.3 2.6 9.9 9.1 16.9 14.5 23.3 18.1 27.5 23.9 29.3 41 2.9 26.2 5.5 35.7 13 47.3 6.1 9.4 16.3 19.4 35 34.5 34.8 28 71.7 59.2 82.1 69.6 8.8 8.8 11.2 11.8 14.7 19 7.8 16.1 8.3 21.1 7.1 78.5-.4 20.4-.2 22.6 1.9 30.9 2.7 10.7 8.6 23.6 14.6 31.9 9.6 13.6 28 28.4 42.2 34.1 11.1 4.5 11.2 4.4 6.6-1-10.5-12.6-16.1-31.5-14.8-49.9 1-14.8 5.5-27.4 13.7-38.3 4.4-5.7 5.9-5.9 5.9-.7 0 8.7 5.7 28.6 12 42 15.3 32.3 42.8 57 75.3 67.6 46.3 15.1 107.4 3 147.5-29.4 5.5-4.5 14.2-14.3 14.2-16 0-.3-1.9.1-4.2 1-2.9 1-8.9 1.7-17.8 2.1-14.9.5-24.9-.9-39.4-5.5-9.3-2.9-25.5-10.9-30.5-15.1l-3.5-2.9 8 .9c21.7 2.5 50.8-2.8 73-13.1 18.9-8.9 39.4-26.1 50.4-42.5 25.1-37.5 25.3-83.8.5-121.1-14.5-21.8-39.4-40.4-66.1-49.3-15.5-5.2-22.6-6.3-41.9-6.8l-18-.4 5.5 1.8c22.1 7.3 40.2 25.6 45.5 45.8 4.3 16.4 0 35.2-11.1 48.8-8.6 10.6-25.6 20.4-43.9 25.3-8.9 2.3-11.9 2.6-27.7 2.7-9.7.1-18-.2-18.4-.6-.4-.4 2.3-3.9 5.9-7.8 11.2-11.8 17.3-27.2 18.4-46.6 1.5-26.5-7.9-52.5-25.2-69.9-8.6-8.5-15.5-13.4-14.1-10 .3 1 1.2 4.9 1.8 8.6 3.5 20.2-7.5 41.5-25.9 50.1-5.8 2.8-8.2 3.3-16.5 3.6-11.4.5-19.6-1.6-29.4-7.3-3.3-2-21.3-16.3-40-31.7-86.8-71.8-90.1-74.4-99.1-77.8-8.7-3.2-13.7-4.1-32.5-5.4-13.7-1-18.5-1.8-21.5-3.3-5.6-2.9-8.8-9.5-11.8-24.4-3.2-15.6-6.9-23.7-12.9-27.8-6.6-4.6-14.9-6.9-29.1-8.1-7.1-.6-15.2-1.6-18-2.2-6.8-1.4-18.1-6.9-23.2-11.3-5.5-4.7-10.2-14.2-10.5-21.3-.1-2.8-.4-5.2-.6-5.2-.2 0-1 1.7-1.9 3.7z"/></svg>